/* XPM */
static char *result[] = {
/* columns rows colors chars-per-pixel */
"32 32 57 1 ",
"  c #573915",
". c #5D3C15",
"X c #5E3F19",
"o c #623F16",
"O c #664115",
"+ c #6A4316",
"@ c #64431C",
"# c #6A461C",
"$ c #6D491E",
"% c #754916",
"& c #7A4D17",
"* c #734B1D",
"= c #7A4E1C",
"- c #7D511D",
"; c #644520",
": c #684720",
"> c #664926",
", c #6C4A23",
"< c #6E4E29",
"1 c #734E22",
"2 c #704F2A",
"3 c #745026",
"4 c #7C5324",
"5 c #75532B",
"6 c #7B562A",
"7 c #7E592C",
"8 c #735532",
"9 c #7B5932",
"0 c #84541D",
"q c #825623",
"w c #845825",
"e c #8B5C24",
"r c #805728",
"t c #835A2B",
"y c #8A5E2B",
"u c #825E33",
"i c #8D612D",
"p c #926127",
"a c #92632C",
"s c #9C682C",
"d c #866135",
"f c #8C6333",
"g c #866238",
"h c #8C6639",
"j c #8E683C",
"k c #916532",
"l c #956835",
"z c #9A6C36",
"x c #946C3D",
"c c #9B6E3A",
"v c #9E713D",
"b c #A2733C",
"n c #AC793E",
"m c #9C7243",
"M c #A17542",
"N c #AC7D46",
"B c #A77B49",
/* pixels */
"Mx987u6644e4*00%&0%%$#13:f6vM9xB",
"mghvlc6:34r$%-&++00#$eyyklfkdujm",
"9gxddk7t4#@q@O-..+O##O@rakfv9xg9",
"h9hcf<kaa,=-O-@#e0-pe144ti7udvvh",
"xkdzc6iiy3e4@e=*p0eqqwaiy3,kft28",
"7ftd5ik6yre4@e3@=4@-#4ytykfd5cc7",
"7dkf3fa6i4y4@r#441#se44@tytfi5t<",
"7ttyyyi64Xii4e37i,:ti47467,16137",
"t::,ttt7i4ytyit,6:,4irtiti3rairr",
"3e@4:@447t3,fitt7tk656ttr3#$111$",
"ip@py$$316z6dznb5tf5tk3fy@4r#=44",
"4@Ope*4r,3f77tbv2<55fz1tr$ew44$-",
"-0#0w#ir,7f69uh8ufhddkki14#@@.  ",
"*0#=e$1#,kh2bN99mmMu<7ki$ae$---%",
"O0++q3$11f5>hxxg8hu5vc74:#q#=0-O",
"Oo.#4*$y56fldg988hg5cc77t33=.. O",
"&0*=$#13:f7bMuhBMm887d5774e3*00&",
"+00O$eyezkdkdujmmghvkz6:14q**&&+",
" +o*#X@rikfvuxh9udxddk7t4@#4@O0o",
"e00ee1r4ti7udvmgh9hch,kaa*3-@=@O",
"eee0qwaay5,kf935xkdcc6iiy4wqOe-*",
"=4@4$4etyifd5zv76htu5fk4rre4@e1#",
"41@srq6@tytit6t,7ukf3ak6i4e4@r#4",
"a,:wy64467,37<3t7tyytyi64@ii4t16",
"6#,4yttiti46aitrt#::ttw7i6yttit,",
"7tl636tt64##*31:3y@4:#447t5,iift",
"57d5uf1ki@4q#=44ipOpy$,316z6fznv",
"5<55fz1t6$ew44#--#@ae*4r,5i76ubc",
"uhhdulki14#@O.  -0$qq#i4#tf8uud8",
"cMMu2tki$ie$---%#0#=e$3#>kf3vN9u",
"9hu8czt5:#r#-0&+O0+#q=$13f6>hxxg",
"8hu8cz7tt34=.  OOoo#41:y66fhdg98"
};
